<svg xmlns="http://www.w3.org/2000/svg" viewBox="0 0 100 100" width="100" height="100">
  <defs>
    <linearGradient id="cat" x1="0%" y1="0%" x2="100%" y2="100%">
      <stop offset="0%" style="stop-color:#2a2a3a"/>
      <stop offset="100%" style="stop-color:#1a1a2a"/>
    </linearGradient>
  </defs>
  
  <!-- 猫耳朵 -->
  <path d="M30 40 L40 15 L50 38" fill="url(#cat)" stroke="#ff2d78" stroke-width="1.5"/>
  <path d="M50 38 L60 15 L70 40" fill="url(#cat)" stroke="#ff2d78" stroke-width="1.5"/>
  <path d="M35 36 L40 22 L45 35" fill="#ff9ec0" opacity="0.6"/>
  <path d="M55 35 L60 22 L65 36" fill="#ff9ec0" opacity="0.6"/>
  
  <!-- 头 -->
  <ellipse cx="50" cy="52" rx="28" ry="24" fill="url(#cat)"/>
  
  <!-- 眼睛 -->
  <ellipse cx="40" cy="50" rx="6" ry="7" fill="#00f0ff"/>
  <ellipse cx="60" cy="50" rx="6" ry="7" fill="#00f0ff"/>
  <circle cx="42" cy="48" r="2.5" fill="white"/>
  <circle cx="62" cy="48" r="2.5" fill="white"/>
  
  <!-- 腮红 -->
  <ellipse cx="30" cy="56" rx="6" ry="3" fill="#ff9ec0" opacity="0.4"/>
  <ellipse cx="70" cy="56" rx="6" ry="3" fill="#ff9ec0" opacity="0.4"/>
  
  <!-- 嘴巴 -->
  <path d="M44 60 Q50 64 56 60" fill="none" stroke="#ff2d78" stroke-width="1.5" stroke-linecap="round"/>
  
  <!-- 猫须 -->
  <line x1="28" y1="52" x2="15" y2="50" stroke="#4a4a5a" stroke-width="1"/>
  <line x1="28" y1="56" x2="15" y2="58" stroke="#4a4a5a" stroke-width="1"/>
  <line x1="72" y1="52" x2="85" y2="50" stroke="#4a4a5a" stroke-width="1"/>
  <line x1="72" y1="56" x2="85" y2="58" stroke="#4a4a5a" stroke-width="1"/>
</svg>