<svg xmlns="http://www.w3.org/2000/svg" viewBox="0 0 100 100" width="100" height="100">
  <!-- 猫耳朵 -->
  <path d="M30 45 L38 15 L48 42" fill="#d0d0e0" stroke="#b0b0c0" stroke-width="1"/>
  <path d="M52 42 L62 15 L70 45" fill="#d0d0e0" stroke="#b0b0c0" stroke-width="1"/>
  <path d="M34 40 L38 22 L44 38" fill="#ffb0c8" opacity="0.6"/>
  <path d="M56 38 L62 22 L66 40" fill="#ffb0c8" opacity="0.6"/>
  
  <!-- 头 -->
  <ellipse cx="50" cy="55" rx="28" ry="24" fill="#d0d0e0"/>
  
  <!-- 眼睛 -->
  <ellipse cx="40" cy="52" rx="7" ry="8" fill="#8b0000"/>
  <ellipse cx="60" cy="52" rx="7" ry="8" fill="#8b0000"/>
  <circle cx="42" cy="50" r="3" fill="white" opacity="0.8"/>
  <circle cx="62" cy="50" r="3" fill="white" opacity="0.8"/>
  
  <!-- 腮红 -->
  <ellipse cx="30" cy="60" rx="7" ry="3" fill="#ff9ec0" opacity="0.4"/>
  <ellipse cx="70" cy="60" rx="7" ry="3" fill="#ff9ec0" opacity="0.4"/>
  
  <!-- 嘴巴 -->
  <path d="M44 65 Q50 69 56 65" fill="none" stroke="#ff6b9d" stroke-width="1.5" stroke-linecap="round"/>
  
  <!-- 猫须 -->
  <line x1="28" y1="56" x2="15" y2="54" stroke="#b0b0c0" stroke-width="1"/>
  <line x1="28" y1="60" x2="15" y2="62" stroke="#b0b0c0" stroke-width="1"/>
  <line x1="72" y1="56" x2="85" y2="54" stroke="#b0b0c0" stroke-width="1"/>
  <line x1="72" y1="60" x2="85" y2="62" stroke="#b0b0c0" stroke-width="1"/>
</svg>